# xmcd
#
# Track frame offsets:
#  150
#  8989
#  19541
#  27930
#  43172
#  57105
#  67050
#  74808
#  89249
#  102227
#  115746
#  127169
#
# Disc length: 1806 seconds
#
# Revision: 0
# Processed by: cddbd v1.5.1PL2 Copyright (c) Steve Scherf et al.
# Submitted via: Collectorz.com_Music_Collector 6.11
#
DISCID=b0070c0c
DTITLE=Burl Ives - The Collection
DYEAR=1900
DGENRE=Country
TTITLE0=Little Bitty Tear
TTITLE1=Blue Tail Fly
TTITLE2=Big Rock Candy Mountain
TTITLE3=Green Green Grass Of Home
TTITLE4=The Old Front Porch
TTITLE5=Galisteo
TTITLE6=Goober Peas
TTITLE7=Comin'After Jenny
TTITLE8=Bow Down
TTITLE9=Snowbird
TTITLE10=Raindrops Keep Falling On My Head
TTITLE11=Funny Way Of Laughing
EXTD=
EXTT0=
EXTT1=
EXTT2=
EXTT3=
EXTT4=
EXTT5=
EXTT6=
EXTT7=
EXTT8=
EXTT9=
EXTT10=
EXTT11=
PLAYORDER=
